PathFileType	4	(X/Y/Z)	Walk7.trc
DataRate	CameraRate	NumFrames	NumMarkers	Units	OrigDataRate	OrigDataStartFrame	OrigNumFrames
200.000000	200.000000	6	59	mm	200.000000	344	533
Frame#	Times		LBHD		C7		T10		RBack		LPSI		RPSI		RCAR		LElbowM		LLFC		LFHD		LUA1		RElbowM		RUA1		RWRR		CLAV		LCAR		RFA1		LFA1		LWRU		RTH2		RTH3		RTB1		LACR1		RACR1		LWRR		RTB3		RToe		RMT1		RLFC		RTH4		RCAL		RMT5		RTB4		LTB3		RWRU		LTH1		RFHD		RBHD		RTB2		RTH1		LTH4		LTH3		LElbow		STRN		RMMAL		RElbow		LTH2		RASI		LTB2		RLMAL		LASI		LCAL		LMT1		LLMAL		LMT5		LMMAL		LToe		LTB1		LTB4
			X1	Y1	Z1	X2	Y2	Z2	X3	Y3	Z3	X4	Y4	Z4	X5	Y5	Z5	X6	Y6	Z6	X7	Y7	Z7	X8	Y8	Z8	X9	Y9	Z9	X10	Y10	Z10	X11	Y11	Z11	X12	Y12	Z12	X13	Y13	Z13	X14	Y14	Z14	X15	Y15	Z15	X16	Y16	Z16	X17	Y17	Z17	X18	Y18	Z18	X19	Y19	Z19	X20	Y20	Z20	X21	Y21	Z21	X22	Y22	Z22	X23	Y23	Z23	X24	Y24	Z24	X25	Y25	Z25	X26	Y26	Z26	X27	Y27	Z27	X28	Y28	Z28	X29	Y29	Z29	X30	Y30	Z30	X31	Y31	Z31	X32	Y32	Z32	X33	Y33	Z33	X34	Y34	Z34	X35	Y35	Z35	X36	Y36	Z36	X37	Y37	Z37	X38	Y38	Z38	X39	Y39	Z39	X40	Y40	Z40	X41	Y41	Z41	X42	Y42	Z42	X43	Y43	Z43	X44	Y44	Z44	X45	Y45	Z45	X46	Y46	Z46	X47	Y47	Z47	X48	Y48	Z48	X49	Y49	Z49	X50	Y50	Z50	X51	Y51	Z51	X52	Y52	Z52	X53	Y53	Z53	X54	Y54	Z54	X55	Y55	Z55	X56	Y56	Z56	X57	Y57	Z57	X58	Y58	Z58	X59	Y59	Z59

344	1.72	-155.94	1462.8	-72.16	-171.84	1328.6	-7.7264	-190.68	1062	-14.474	-201.95	1226.1	115.23	-219	884.68	-34.445	-211.9	876.1	63.928	-83.217	711.43	307.27	-102.65	938.94	-212.21	-171.5	436.2	-139.61	14.483	1483.7	-43.986	-51.2	1096.3	-251.01	-180.41	932.82	181.12	-117.13	1112.1	229.51	-50.622	746.64	263.29	-42.468	1256.2	3.6823	103.88	727.71	-285.62	-147.81	844.04	275.01	-13.82	861.95	-290.74	44.49	751.95	-295.95	66.347	658.7	141.78	34.591	537.99	146.16	127.41	336.65	40.524	-77.654	1269.5	-168.45	-106.79	1267.1	149.83	88.572	765.5	-237.85	162.15	154.51	40.464	302.55	36.944	23.791	243.33	56.603	19.967	82.098	452.14	126.28	3.1815	625.07	172	93.905	35.696	72.241	230.69	39.263	73.77	139.44	245.57	43.932	-300.95	171.57	-36.769	-124.45	734.26	266.92	-83.065	717.38	-195.76	16.431	1492.8	32.614	-162.49	1469.5	51.057	123.53	241.76	113.55	-23.238	706.46	199.02	-96.707	627.12	-170.92	-116.52	536.25	-148.83	-69.152	976.21	-272.34	23.236	1153	2.6716	143.31	72.06	10.087	-148.16	970.77	262.85	-33.281	627.8	-133.7	17.503	844.71	139.09	-277.24	259.01	-113.48	150.64	64.989	88.759	-4.998	841.66	-168.72	-448.98	108.13	-30.312	-305.29	52.865	-28.815	-395.84	113.4	-75.506	-337.67	44.61	-82.556	-374.52	110.37	2.5712	-264.14	24.509	-41.447	-192.72	317.85	-55.95	-254.16	249.64	-46.854
345	1.725	-150.25	1463.5	-71.368	-165.71	1329.5	-6.8369	-184.59	1063	-13.69	-195.6	1227	116.2	-212.78	885.11	-34.222	-205.76	876.92	64.238	-76.651	711.82	307.3	-96.934	940.04	-211.22	-163.26	436.5	-140.41	20.149	1484.9	-43.54	-45.29	1097.2	-250.14	-173.35	933.57	181.35	-110.2	1112.8	230.1	-44.067	746.95	263.29	-36.328	1257.2	4.4581	108.74	728.11	-285.23	-140.93	844.66	275.23	-8.5017	862.74	-290.02	49.37	752.51	-295.38	72.088	658.83	142.04	39.011	538.5	146.65	131.39	336.65	40.795	-71.611	1270.5	-167.7	-100.43	1268.1	150.7	93.699	765.93	-237.41	164.04	154.11	40.676	303.09	34.433	23.714	244.09	55	19.99	86.686	452.42	126.76	8.6666	625.94	172.46	94.259	36.012	72.288	231.11	37.917	73.912	142.35	245.44	44.171	-296.09	173.61	-37.598	-117.93	734.8	267.11	-76.613	718.29	-195.55	22.206	1494.1	33.071	-156.61	1470.3	51.852	126.34	241.74	113.78	-16.791	707.65	199.47	-89.583	627.81	-171.07	-108.75	536.76	-149.43	-63.471	977.15	-271.43	29.486	1154	3.4148	144.21	71.875	10.155	-140.98	971.35	263.13	-26.026	628.75	-134.12	23.517	845.71	139.68	-271.51	260.93	-114.17	151.35	64.684	88.88	-3.7952	841.93	-168.62	-444.7	113.58	-30.198	-303.67	53.196	-28.855	-392.15	117.17	-75.777	-336.16	45.766	-82.476	-370.38	113.72	2.1099	-264.4	24.478	-41.093	-185.63	318.19	-57.099	-248.15	250.96	-47.784
346	1.73	-144.56	1464.3	-70.586	-159.6	1330.5	-5.9551	-178.55	1064	-12.891	-189.25	1228	117.18	-206.56	885.58	-34.041	-199.63	877.83	64.521	-69.974	712.35	307.33	-91.244	941.27	-210.21	-154.67	436.84	-141.28	25.816	1486.2	-43.107	-39.381	1098.2	-249.26	-166.21	934.47	181.57	-103.18	1113.7	230.67	-37.416	747.41	263.27	-30.209	1258.4	5.2233	113.45	728.57	-284.87	-133.96	845.43	275.45	-3.2568	863.65	-289.3	54.133	753.16	-294.83	77.686	658.94	142.44	43.226	539.03	147.2	135.17	336.68	41.106	-65.578	1271.5	-166.94	-94.06	1269.1	151.55	98.714	766.41	-236.99	165.76	153.77	40.913	303.51	32.268	23.594	244.7	53.619	19.998	91.195	452.76	127.22	13.954	626.83	172.98	94.56	36.297	72.358	231.44	36.785	74.058	145.07	245.35	44.449	-290.85	175.72	-38.529	-111.31	735.51	267.31	-70.093	719.3	-195.36	27.985	1495.5	33.511	-150.72	1471.2	52.636	128.99	241.75	114.06	-10.532	708.85	199.97	-82.301	628.58	-171.25	-100.73	537.33	-150.09	-57.809	978.2	-270.52	35.713	1155.2	4.1492	144.98	71.769	10.252	-133.71	972.07	263.41	-18.619	629.85	-134.56	29.474	846.81	140.28	-265.44	262.95	-114.93	151.97	64.442	89.015	-2.7455	842.2	-168.52	-439.97	119.22	-30.099	-301.91	53.557	-28.885	-388.11	121.1	-76.071	-334.47	47.032	-82.409	-365.84	117.18	1.6295	-264.65	24.455	-40.729	-178.17	318.56	-58.373	-241.77	252.33	-48.815
347	1.735	-138.87	1465.2	-69.816	-153.52	1331.6	-5.0825	-172.55	1065.2	-12.08	-182.9	1229.2	118.18	-200.36	886.09	-33.894	-193.54	878.83	64.78	-63.183	713.04	307.35	-85.586	942.62	-209.18	-145.76	437.2	-142.22	31.483	1487.6	-42.687	-33.477	1099.4	-248.38	-159	935.51	181.77	-96.087	1114.6	231.22	-30.666	748.03	263.22	-24.113	1259.5	5.9754	118.04	729.07	-284.54	-126.91	846.35	275.67	1.9163	864.67	-288.6	58.785	753.91	-294.33	83.139	659.06	142.97	47.274	539.57	147.8	138.76	336.73	41.455	-59.558	1272.7	-166.19	-87.681	1270.4	152.39	103.62	766.96	-236.61	167.33	153.49	41.167	303.81	30.431	23.428	245.2	52.445	19.986	95.612	453.14	127.68	19.053	627.73	173.55	94.813	36.547	72.448	231.7	35.853	74.202	147.61	245.28	44.759	-285.21	177.88	-39.559	-104.59	736.36	267.52	-63.509	720.39	-195.18	33.764	1496.9	33.935	-144.83	1472.2	53.408	131.48	241.79	114.38	-4.4856	710.05	200.51	-74.865	629.42	-171.44	-92.467	537.96	-150.79	-52.166	979.38	-269.61	41.913	1156.5	4.8755	145.62	71.73	10.372	-126.37	972.94	263.68	-11.065	631.07	-135.05	35.377	848.01	140.89	-259.04	265.07	-115.74	152.51	64.252	89.157	-1.8289	842.46	-168.42	-434.79	125	-30.021	-299.99	53.966	-28.911	-383.68	125.16	-76.388	-332.57	48.422	-82.364	-360.89	120.75	1.1361	-264.88	24.447	-40.369	-170.36	318.94	-59.767	-235	253.74	-49.942
348	1.74	-133.18	1466.2	-69.059	-147.46	1332.8	-4.2204	-166.57	1066.4	-11.258	-176.56	1230.5	119.19	-194.17	886.64	-33.774	-187.47	879.89	65.018	-56.274	713.87	307.36	-79.961	944.08	-208.14	-136.53	437.58	-143.22	37.146	1489.1	-42.277	-27.58	1100.6	-247.49	-151.75	936.69	181.97	-88.918	1115.7	231.77	-23.815	748.81	263.15	-18.045	1260.8	6.7126	122.51	729.61	-284.24	-119.78	847.4	275.88	7.0201	865.78	-287.92	63.335	754.74	-293.87	88.443	659.21	143.63	51.192	540.15	148.42	142.15	336.78	41.841	-53.557	1274	-165.43	-81.299	1271.7	153.22	108.41	767.55	-236.26	168.76	153.24	41.428	304.02	28.898	23.219	245.57	51.464	19.954	99.919	453.54	128.12	23.972	628.64	174.17	95.024	36.763	72.556	231.88	35.102	74.34	149.97	245.24	45.097	-279.18	180.09	-40.685	-97.757	737.37	267.72	-56.865	721.56	-195.01	39.542	1498.5	34.342	-138.94	1473.2	54.166	133.8	241.85	114.73	1.3344	711.23	201.09	-67.284	630.33	-171.66	-83.981	538.66	-151.53	-46.547	980.67	-268.71	48.082	1157.8	5.5945	146.14	71.749	10.51	-118.97	973.93	263.95	-3.375	632.41	-135.56	41.23	849.29	141.5	-252.31	267.28	-116.6	152.98	64.103	89.301	-1.0238	842.7	-168.33	-429.14	130.92	-29.97	-297.91	54.442	-28.939	-378.86	129.34	-76.729	-330.45	49.951	-82.352	-355.53	124.4	0.63896	-265.05	24.462	-40.028	-162.19	319.32	-61.272	-227.86	255.18	-51.16
349	1.745	-127.5	1467.2	-68.317	-141.44	1334	-3.3699	-160.63	1067.7	-10.428	-170.23	1231.9	120.21	-187.99	887.22	-33.673	-181.42	881.02	65.239	-49.245	714.85	307.37	-74.368	945.64	-207.08	-127	437.99	-144.27	42.804	1490.6	-41.877	-21.694	1101.9	-246.61	-144.45	938	182.18	-81.687	1116.9	232.31	-16.861	749.75	263.07	-12.008	1262.2	7.4336	126.87	730.19	-283.97	-112.57	848.59	276.1	12.057	866.98	-287.26	67.791	755.64	-293.44	93.598	659.39	144.41	55.015	540.75	149.07	145.34	336.85	42.26	-47.579	1275.3	-164.67	-74.921	1273.1	154.02	113.1	768.2	-235.94	170.04	153.04	41.689	304.14	27.64	22.976	245.85	50.654	19.904	104.09	453.96	128.55	28.724	629.56	174.81	95.196	36.944	72.678	232.01	34.51	74.47	152.15	245.22	45.454	-272.77	182.33	-41.897	-90.824	738.52	267.93	-50.165	722.79	-194.84	45.315	1500	34.737	-133.06	1474.4	54.908	135.96	241.92	115.11	6.9206	712.39	201.7	-59.566	631.29	-171.89	-75.286	539.42	-152.31	-40.953	982.05	-267.81	54.216	1159.2	6.3061	146.57	71.813	10.661	-111.52	975.05	264.22	4.4405	633.87	-136.1	47.035	850.64	142.12	-245.25	269.58	-117.51	153.38	63.988	89.443	-0.30809	842.93	-168.24	-423.03	136.93	-29.947	-295.63	55.011	-28.982	-373.65	133.63	-77.092	-328.09	51.633	-82.381	-349.77	128.14	0.15105	-265.13	24.509	-39.725	-153.69	319.72	-62.877	-220.34	256.65	-52.46
